# xmcd
#
# Track frame offsets:
#	150
#	12901
#	24336
#	40512
#	54837
#	67990
#	80968
#	89867
#	102911
#	118775
#	140114
#	152689
#	171203
#	189045
#	201735
#
# Disc length: 2891 seconds
# Revision: 2
# Processed by: cddbd v1.5.2PL0 Copyright (c) Steve Scherf et al.
# Submitted via: dBpowerAMP V12.0
#
DISCID=cb0b490f
DTITLE=Loudon Wainwright III - High Wide and Handsome • The Charlie Poole Project, Disc 1
DYEAR=2009
DGENRE=Country
TTITLE0=High Wide and Handsome
TTITLE1=Took My Gal Out Walkin'
TTITLE2=I'm the Man Who Rode the Mule Around the World
TTITLE3=My Mother and My Sweetheart
TTITLE4=Bill Mason's Bride
TTITLE5=Goodbye Booze
TTITLE6=Old Ballyhoo
TTITLE7=Little Waterloo
TTITLE8=I'm Glad I'm Married
TTITLE9=Mother's Last Farewell Kiss
TTITLE10=Acres of Diamonds
TTITLE11=Way Up in NYC
TTITLE12=If I Lose
TTITLE13=The Great Reaping Day
TTITLE14=Where the Whippoorwill Is Whispering Goodnight
EXTD=
EXTT0=
EXTT1=
EXTT2=
EXTT3=
EXTT4=
EXTT5=
EXTT6=
EXTT7=
EXTT8=
EXTT9=
EXTT10=
EXTT11=
EXTT12=
EXTT13=
EXTT14=
PLAYORDER=
